<svg xmlns="http://www.w3.org/2000/svg" width="24" height="19" viewBox="0 0 24 19">
  <g id="Group_94" data-name="Group 94" transform="translate(-108 -411.064)">
    <g id="Rectangle_110" data-name="Rectangle 110" transform="translate(108 413.064)" fill="none" stroke="#fff" stroke-width="2">
      <rect width="24" height="17" stroke="none"/>
      <rect x="1" y="1" width="22" height="15" fill="none"/>
    </g>
    <g id="Rectangle_111" data-name="Rectangle 111" transform="translate(121 416.064)" fill="#fff" stroke="#fff" stroke-width="1">
      <rect width="2" height="2" stroke="none"/>
      <rect x="0.5" y="0.5" width="1" height="1" fill="none"/>
    </g>
    <g id="Rectangle_112" data-name="Rectangle 112" transform="translate(125 416.064)" fill="#fff" stroke="#fff" stroke-width="1">
      <rect width="3" height="2" stroke="none"/>
      <rect x="0.5" y="0.5" width="2" height="1" fill="none"/>
    </g>
    <g id="Rectangle_113" data-name="Rectangle 113" transform="translate(125 420.064)" fill="#fff" stroke="#fff" stroke-width="1">
      <rect width="3" height="2" stroke="none"/>
      <rect x="0.5" y="0.5" width="2" height="1" fill="none"/>
    </g>
    <g id="Rectangle_114" data-name="Rectangle 114" transform="translate(121 420.064)" fill="#fff" stroke="#fff" stroke-width="1">
      <rect width="2" height="2" stroke="none"/>
      <rect x="0.5" y="0.5" width="1" height="1" fill="none"/>
    </g>
    <g id="Rectangle_115" data-name="Rectangle 115" transform="translate(117 420.064)" fill="#fff" stroke="#fff" stroke-width="1">
      <rect width="3" height="2" stroke="none"/>
      <rect x="0.5" y="0.5" width="2" height="1" fill="none"/>
    </g>
    <g id="Rectangle_116" data-name="Rectangle 116" transform="translate(113 420.064)" fill="#fff" stroke="#fff" stroke-width="1">
      <rect width="3" height="2" stroke="none"/>
      <rect x="0.5" y="0.5" width="2" height="1" fill="none"/>
    </g>
    <g id="Rectangle_117" data-name="Rectangle 117" transform="translate(113 424.064)" fill="#fff" stroke="#fff" stroke-width="1">
      <rect width="3" height="3" stroke="none"/>
      <rect x="0.5" y="0.5" width="2" height="2" fill="none"/>
    </g>
    <g id="Rectangle_118" data-name="Rectangle 118" transform="translate(117 424.064)" fill="#fff" stroke="#fff" stroke-width="1">
      <rect width="3" height="3" stroke="none"/>
      <rect x="0.5" y="0.5" width="2" height="2" fill="none"/>
    </g>
    <g id="Rectangle_119" data-name="Rectangle 119" transform="translate(121 424.064)" fill="#fff" stroke="#fff" stroke-width="1">
      <rect width="2" height="3" stroke="none"/>
      <rect x="0.5" y="0.5" width="1" height="2" fill="none"/>
    </g>
    <g id="Rectangle_120" data-name="Rectangle 120" transform="translate(125 424.064)" fill="#fff" stroke="#fff" stroke-width="1">
      <rect width="3" height="3" stroke="none"/>
      <rect x="0.5" y="0.5" width="2" height="2" fill="none"/>
    </g>
    <g id="Rectangle_121" data-name="Rectangle 121" transform="translate(113 411.064)" fill="#fff" stroke="#fff" stroke-width="1">
      <rect width="2" height="2" stroke="none"/>
      <rect x="0.5" y="0.5" width="1" height="1" fill="none"/>
    </g>
    <g id="Rectangle_122" data-name="Rectangle 122" transform="translate(124 411.064)" fill="#fff" stroke="#fff" stroke-width="1">
      <rect width="2" height="2" stroke="none"/>
      <rect x="0.5" y="0.5" width="1" height="1" fill="none"/>
    </g>
  </g>
</svg>
