<svg xmlns="http://www.w3.org/2000/svg" width="48.433" height="48.433" viewBox="0 0 48.433 48.433">
  <g id="organigrame" fill="none">
    <path d="M24.216,48.433c-.533,0-1.073-.018-1.6-.052s-1.055-.086-1.575-.155-1.035-.153-1.544-.254-1.013-.217-1.51-.349-.988-.28-1.472-.442-.962-.34-1.431-.531-.933-.4-1.387-.617-.9-.454-1.339-.7l5.172-8.958A13.807,13.807,0,0,0,31.3,36.329L36.4,45.151c-.447.26-.907.509-1.369.74s-.942.452-1.42.653-.975.392-1.467.562-1,.329-1.511.468-1.033.264-1.552.37-1.058.2-1.589.269-1.081.128-1.622.164S24.766,48.433,24.216,48.433ZM12.144,45.214h0a24.334,24.334,0,0,1-8.766-8.653c-.265-.447-.519-.908-.755-1.371s-.461-.944-.667-1.423-.4-.977-.576-1.472S1.042,31.286.9,30.778.627,29.741.517,29.219s-.2-1.063-.28-1.6S.1,26.537.064,25.994,0,24.886,0,24.333H10.558c0,.012,0,.025,0,.041a13.809,13.809,0,0,0,6.759,11.88l-5.173,8.96Zm24.462-.186h0l-5.094-8.823a13.905,13.905,0,0,0,4.838-4.938,13.753,13.753,0,0,0,1.84-6.885H48.432c0,.544-.026,1.093-.065,1.632s-.1,1.074-.171,1.6-.166,1.052-.274,1.57-.232,1.029-.373,1.534-.3,1-.468,1.494-.359.975-.561,1.451-.419.945-.649,1.4-.476.912-.735,1.354a24.335,24.335,0,0,1-8.531,8.606ZM48.433,24.14H38.187A13.833,13.833,0,0,0,31.446,12.5l5.229-9.057a24.335,24.335,0,0,1,8.5,8.635c.257.442.5.9.73,1.356s.446.933.645,1.406.387.965.556,1.453.326.995.463,1.5.262,1.022.368,1.536.2,1.047.268,1.572.128,1.07.166,1.6.058,1.09.059,1.634Zm-37.872-.048H0c0-.551.024-1.108.064-1.654s.1-1.088.173-1.624.168-1.066.278-1.59S.752,18.18.9,17.669s.3-1.016.478-1.512.367-.987.572-1.467.428-.955.663-1.419.487-.922.751-1.367a24.336,24.336,0,0,1,8.716-8.644l5.309,9.2A13.907,13.907,0,0,0,12.507,17.3a13.745,13.745,0,0,0-1.946,6.8Zm20.676-11.71h0a13.809,13.809,0,0,0-13.643-.047l-5.309-9.2c.439-.249.892-.488,1.346-.708s.925-.432,1.394-.625.956-.375,1.439-.538S17.449.953,17.945.82,18.955.567,19.463.466,20.5.278,21.017.209,22.074.088,22.6.053,23.679,0,24.216,0c.553,0,1.113.019,1.662.056s1.093.093,1.632.166,1.072.164,1.6.272,1.047.233,1.561.375,1.021.3,1.52.474.992.364,1.475.569.96.426,1.427.661.927.486,1.375.749l-5.23,9.058Z" stroke="none"/>
    <path d="M 24.21629524230957 47.43315505981445 C 24.74368476867676 47.43315505981445 25.27676582336426 47.41525650024414 25.80070495605469 47.37996673583984 C 26.31931495666504 47.34502410888672 26.84255599975586 47.29213714599609 27.35589599609375 47.22275543212891 C 27.8644962310791 47.15401458740234 28.37684440612793 47.06730651855469 28.87869453430176 46.96501541137695 C 29.37622451782227 46.86359405517578 29.87661552429199 46.74419403076172 30.36593627929688 46.61014556884766 C 30.85140609741211 46.47714614868164 31.33873558044434 46.32621383666992 31.81436538696289 46.16156387329102 C 32.28657531738281 45.99810409545898 32.75972366333008 45.8167839050293 33.22065353393555 45.62267684936523 C 33.67868423461914 45.42975616455078 34.13654708862305 45.21917724609375 34.58149719238281 44.99680709838867 C 34.72879791259766 44.92318344116211 34.8759765625 44.84762191772461 35.02254867553711 44.77038192749023 L 30.9216480255127 37.66741561889648 C 30.07672882080078 38.08427047729492 29.19345664978027 38.41949081420898 28.2851448059082 38.66750717163086 C 27.01657485961914 39.0139045715332 25.70058441162109 39.18954467773438 24.37372589111328 39.18954467773438 C 23.06461524963379 39.18954467773438 21.76552581787109 39.01848602294922 20.51254463195801 38.68110656738281 C 19.61728668212891 38.44004440307617 18.74582099914551 38.11428070068359 17.91118812561035 37.70919418334961 L 13.73690319061279 44.93927764892578 C 13.8672342300415 45.00533294677734 13.99796581268311 45.07004928588867 14.12877559661865 45.13325500488281 C 14.56390571594238 45.34348678588867 15.011155128479 45.54244613647461 15.45812511444092 45.72462463378906 C 15.90797519683838 45.90799713134766 16.36946487426758 46.0792350769043 16.82973480224609 46.23358535766602 C 17.29342460632324 46.38906478881836 17.76811599731445 46.53153610229492 18.2405948638916 46.65702438354492 C 18.71679496765137 46.78349685668945 19.20364570617676 46.89613723754883 19.68762588500977 46.99182510375977 C 20.17560577392578 47.08829498291016 20.67362594604492 47.17007446289062 21.16784477233887 47.2348747253418 C 21.6666259765625 47.30027389526367 22.17484474182129 47.35012435913086 22.67836570739746 47.3830451965332 C 23.18711471557617 47.41629409790039 23.70455551147461 47.43315505981445 24.21629524230957 47.43315505981445 M 11.78815937042236 43.83021545410156 L 15.97417545318604 36.57980728149414 C 14.17275714874268 35.33736419677734 12.65687465667725 33.70316314697266 11.55528545379639 31.80738639831543 C 10.91281509399414 30.70169639587402 10.41660499572754 29.51700592041016 10.08043575286865 28.28620529174805 C 9.817604064941406 27.32386589050293 9.653033256530762 26.33423042297363 9.588859558105469 25.33332633972168 L 1.02617609500885 25.33332633972168 C 1.035477161407471 25.53004264831543 1.047214508056641 25.72629547119141 1.061355352401733 25.92123603820801 C 1.099185347557068 26.44253540039062 1.155185341835022 26.96834564208984 1.227805376052856 27.48405647277832 C 1.299775362014771 27.99513626098633 1.389945387840271 28.50981521606445 1.495815396308899 29.01381492614746 C 1.600745320320129 29.51340484619141 1.723895311355591 30.01585578918457 1.861865401268005 30.5071964263916 C 1.998725295066833 30.99456596374512 2.153715372085571 31.48368644714355 2.322535276412964 31.96095657348633 C 2.490195274353027 32.4349365234375 2.675855398178101 32.90957641601562 2.874355316162109 33.37169647216797 C 3.071705341339111 33.83112716674805 3.286875247955322 34.29014587402344 3.513895273208618 34.73601531982422 C 3.739765405654907 35.17962646484375 3.983275413513184 35.62184524536133 4.237695217132568 36.0504150390625 C 5.253015518188477 37.76076507568359 6.487245559692383 39.33823394775391 7.906105518341064 40.73899459838867 C 9.087841987609863 41.90566253662109 10.39038181304932 42.94255447387695 11.78815937042236 43.83021545410156 M 36.95345687866211 43.63049697875977 C 38.30465316772461 42.74206161499023 39.56322860717773 41.7125244140625 40.70465469360352 40.56106567382812 C 42.08524703979492 39.1683464050293 43.28585433959961 37.6059455871582 44.27315521240234 35.91725540161133 C 44.52072525024414 35.49380493164062 44.75764465332031 35.05724716186523 44.97732543945312 34.61969375610352 C 45.19822692871094 34.17974472045898 45.40761566162109 33.72705459594727 45.59967422485352 33.27422714233398 C 45.79297637939453 32.81843566894531 45.97374725341797 32.3506965637207 46.1369743347168 31.88399505615234 C 46.30135345458984 31.41403579711914 46.4524040222168 30.93237495422363 46.58591461181641 30.45241546630859 C 46.72047424316406 29.96863555908203 46.84069442749023 29.4741153717041 46.94323348999023 28.98256492614746 C 47.04672622680664 28.48646545410156 47.13500595092773 27.98015594482422 47.20562362670898 27.4776554107666 C 47.27692413330078 26.97044563293457 47.3321647644043 26.45336532592773 47.36979675292969 25.94082641601562 C 47.38340377807617 25.75543403625488 47.39484024047852 25.5688304901123 47.40407180786133 25.38175582885742 L 39.15534591674805 25.38175582885742 C 39.08943176269531 26.3593864440918 38.92769241333008 27.32604598999023 38.67213439941406 28.2667350769043 C 38.33999633789062 29.48921585083008 37.84992599487305 30.66673469543457 37.21552658081055 31.76658630371094 C 36.12847518920898 33.65115356445312 34.63131713867188 35.28079986572266 32.85140991210938 36.5255241394043 L 36.95345687866211 43.63049697875977 M 47.40835189819336 23.13958549499512 C 47.39975738525391 22.95071411132812 47.38891983032227 22.76230239868164 47.3758659362793 22.57510566711426 C 47.34009552001953 22.06221580505371 47.28670501708984 21.54450607299805 47.2171745300293 21.03639602661133 C 47.1483039855957 20.53325653076172 47.06178665161133 20.02626609802246 46.96001434326172 19.52952575683594 C 46.85911560058594 19.03707504272461 46.74058532714844 18.54185485839844 46.60772705078125 18.0576057434082 C 46.47590637207031 17.57710647583008 46.32648468017578 17.09469604492188 46.16363525390625 16.62380599975586 C 46.00183486938477 16.15599632263184 45.82261657714844 15.68747520446777 45.63095474243164 15.23123550415039 C 45.44041442871094 14.7776460647583 45.23251724243164 14.32411575317383 45.01302719116211 13.88325595855713 C 44.79463577270508 13.44459533691406 44.55913543701172 13.00714588165283 44.31308364868164 12.58305549621582 C 43.33132553100586 10.8909158706665 42.13568496704102 9.324375152587891 40.75938415527344 7.926955699920654 C 39.62254333496094 6.772667407989502 38.36819076538086 5.739619731903076 37.02071380615234 4.847003936767578 L 32.78800964355469 12.17826843261719 C 33.53380584716797 12.69381427764893 34.23252105712891 13.27770614624023 34.87355422973633 13.92164516448975 C 35.74727630615234 14.79933547973633 36.50900650024414 15.78376579284668 37.13756561279297 16.84757614135742 C 37.77655410766602 17.92901611328125 38.2752571105957 19.08821487426758 38.61981582641602 20.29300498962402 C 38.88496398925781 21.22015953063965 39.05857849121094 22.17406272888184 39.138427734375 23.13958549499512 L 47.40835189819336 23.13958549499512 M 9.613095283508301 23.09116363525391 C 9.696515083312988 22.12088012695312 9.874654769897461 21.16282844543457 10.14522552490234 20.2319164276123 C 10.49607563018799 19.02471542358398 11.00183582305908 17.86414527893066 11.64843559265137 16.78245544433594 C 12.75475120544434 14.93169689178467 14.26054859161377 13.33678531646729 16.03859519958496 12.12403011322021 L 11.72101783752441 4.645760536193848 C 10.33315181732178 5.533817768096924 9.040023803710938 6.569309234619141 7.866925239562988 7.732855796813965 C 6.456245422363281 9.132025718688965 5.229245185852051 10.70636558532715 4.219995498657227 12.41214561462402 C 3.967085361480713 12.8396053314209 3.724995374679565 13.28063583374023 3.500455379486084 13.72299575805664 C 3.274725437164307 14.16771602630615 3.060805320739746 14.62539577484131 2.864665269851685 15.08332538604736 C 2.667285442352295 15.54416561126709 2.482705354690552 16.01735496520996 2.31604528427124 16.48974609375 C 2.148235321044922 16.96537590026855 1.994125366210938 17.45291519165039 1.858005404472351 17.93879508972168 C 1.720805406570435 18.42856597900391 1.598315358161926 18.92934608459473 1.493925333023071 19.42724609375 C 1.388595342636108 19.92970657348633 1.298875331878662 20.44262504577637 1.227265357971191 20.95175552368164 C 1.154975295066833 21.46574592590332 1.09919536113739 21.98972511291504 1.061465382575989 22.50911521911621 C 1.047452211380005 22.70212554931641 1.035797238349915 22.8963794708252 1.026528596878052 23.09113883972168 L 9.613095283508301 23.09116363525391 M 30.85235404968262 11.04659938812256 L 35.09368133544922 3.700429916381836 C 34.94359588623047 3.620673894882202 34.79291534423828 3.542706489562988 34.64205551147461 3.466755628585815 C 34.19488525390625 3.24163556098938 33.73474502563477 3.028505563735962 33.27440643310547 2.833265542984009 C 32.81118392944336 2.636795520782471 32.33549499511719 2.453235626220703 31.86055564880371 2.287685632705688 C 31.38227462768555 2.120985507965088 30.89218521118164 1.968175649642944 30.4039249420166 1.833505630493164 C 29.91166496276855 1.697745680809021 29.40831565856934 1.576835632324219 28.90787506103516 1.474145650863647 C 28.40290451049805 1.370545625686646 27.88742446899414 1.282715678215027 27.37574577331543 1.21310567855835 C 26.85903549194336 1.142815589904785 26.33251571655273 1.089245676994324 25.81079483032227 1.05387556552887 C 25.28367614746094 1.018125653266907 24.74720573425293 1.000005602836609 24.21629524230957 1.000005602836609 C 23.70095443725586 1.000005602836609 23.18013572692871 1.017085671424866 22.66825485229492 1.050765633583069 C 22.16157531738281 1.084095597267151 21.65010452270508 1.134595632553101 21.1480655670166 1.200855612754822 C 20.65084457397461 1.266485571861267 20.14971542358398 1.349315643310547 19.65862464904785 1.447035670280457 C 19.17166519165039 1.543955564498901 18.681884765625 1.658045649528503 18.20286560058594 1.786135673522949 C 17.72761535644531 1.913205623626709 17.25020599365234 2.057475566864014 16.78389549255371 2.214935541152954 C 16.32098579406738 2.37125563621521 15.85696506500244 2.544645547866821 15.40474510192871 2.730305671691895 C 14.95522499084473 2.914855718612671 14.50566577911377 3.116315603256226 14.06853580474854 3.329105615615845 C 13.93413734436035 3.394519805908203 13.79978466033936 3.461556434631348 13.66589164733887 3.529996633529663 L 17.98152923583984 11.00490760803223 C 18.80759429931641 10.60939598083496 19.66933631896973 10.29129123687744 20.55382537841797 10.05587577819824 C 21.79395484924316 9.725805282592773 23.07915496826172 9.558445930480957 24.37372589111328 9.558445930480957 C 25.6862850189209 9.558445930480957 26.98855590820312 9.730345726013184 28.24436569213867 10.06937599182129 C 29.14208793640137 10.31173896789551 30.01580619812012 10.63929843902588 30.85235404968262 11.04659938812256 M 24.21629524230957 48.43315505981445 C 23.68283462524414 48.43315505981445 23.14345550537109 48.41557693481445 22.61314582824707 48.38091659545898 C 22.08807563781738 48.34658432006836 21.55806541442871 48.29459381103516 21.03784561157227 48.22638702392578 C 20.52241516113281 48.15880584716797 20.00287628173828 48.07350540161133 19.49367523193359 47.97283554077148 C 18.98884582519531 47.87302398681641 18.48088455200195 47.7555046081543 17.98390579223633 47.62351608276367 C 17.4907054901123 47.49252700805664 16.99542617797852 47.34386444091797 16.51181602478027 47.18170547485352 C 16.0315055847168 47.02063751220703 15.55000495910645 46.84196472167969 15.08066558837891 46.65065383911133 C 14.61429500579834 46.46056747436523 14.14766502380371 46.25297546386719 13.69374561309814 46.03366470336914 C 13.24229526519775 45.81553649902344 12.79164505004883 45.58012390136719 12.35432529449463 45.33396530151367 L 17.52623558044434 36.37594604492188 C 18.5472354888916 36.95969390869141 19.63944625854492 37.41039657592773 20.77254486083984 37.71549606323242 C 21.94074440002441 38.03004455566406 23.1523551940918 38.18954467773438 24.37372589111328 38.18954467773438 C 25.61162567138672 38.18954467773438 26.8389949798584 38.02578735351562 28.02172470092773 37.70282745361328 C 29.16866493225098 37.38965606689453 30.27277565002441 36.92728424072266 31.30337524414062 36.32857513427734 L 36.39715576171875 45.15126419067383 C 35.95062637329102 45.41162490844727 35.49016571044922 45.66059494018555 35.028564453125 45.89130401611328 C 34.56427383422852 46.12334442138672 34.08660507202148 46.34302520751953 33.60881423950195 46.54426574707031 C 33.12792587280273 46.74678421020508 32.63425445556641 46.93596649169922 32.14149475097656 47.10654449462891 C 31.64523506164551 47.27833557128906 31.13675498962402 47.43581390380859 30.63017463684082 47.57460403442383 C 30.11954498291016 47.71449661254883 29.59745597839355 47.83906555175781 29.07842445373535 47.94486618041992 C 28.55478477478027 48.05159378051758 28.02029609680176 48.14205551147461 27.48981475830078 48.2137451171875 C 26.95437622070312 48.28611373901367 26.40869522094727 48.34127426147461 25.86791610717773 48.37770462036133 C 25.32175445556641 48.41449737548828 24.76607513427734 48.43315505981445 24.21629524230957 48.43315505981445 Z M 12.14386558532715 45.21412658691406 L 12.14387512207031 45.21410751342773 C 10.34603500366211 44.17828750610352 8.68387508392334 42.91206741333008 7.203555583953857 41.45062637329102 C 5.723915576934814 39.98986434936523 4.436735153198242 38.3447151184082 3.377795457839966 36.56087493896484 C 3.112385272979736 36.11379623413086 2.858355283737183 35.6524772644043 2.622755289077759 35.18973541259766 C 2.385875463485718 34.72450637817383 2.161395311355591 34.2456169128418 1.955535292625427 33.76637649536133 C 1.748405337333679 33.28417587280273 1.55469536781311 32.78894424438477 1.379775404930115 32.29443740844727 C 1.203645348548889 31.79648590087891 1.041925311088562 31.28614616394043 0.8991053700447083 30.77754592895508 C 0.7551753520965576 30.26497650146484 0.6266653537750244 29.74072647094727 0.5171653628349304 29.21935653686523 C 0.4066953361034393 28.69344520568848 0.3126353621482849 28.15651512145996 0.237575352191925 27.62350654602051 C 0.161815345287323 27.08550643920898 0.103415347635746 26.5371265411377 0.06397534906864166 25.99360656738281 C 0.02415535040199757 25.4446849822998 0.002625350840389729 24.88607597351074 5.350952051230706e-06 24.33332633972168 L 10.55822563171387 24.33332633972168 C 10.55819511413574 24.34504508972168 10.55816555023193 24.35795593261719 10.55816555023193 24.37399482727051 C 10.55816555023193 25.61208534240723 10.72199535369873 26.83970642089844 11.04510498046875 28.02273559570312 C 11.35843563079834 29.16992568969727 11.82098579406738 30.27422523498535 12.41991519927979 31.30497550964355 C 13.60184574127197 33.33902740478516 15.29524517059326 35.05033493041992 17.31705474853516 36.25387573242188 L 12.14387512207031 45.21410751342773 L 12.14386558532715 45.21412658691406 Z M 36.60573577880859 45.02823638916016 L 36.60573577880859 45.02822494506836 L 31.51171493530273 36.20510482788086 C 33.50996398925781 34.99685668945312 35.18277359008789 33.28928375244141 36.34930419921875 31.26693534851074 C 36.9406852722168 30.24165534973145 37.39752578735352 29.14403533935547 37.70711517333984 28.00454521179199 C 38.02630615234375 26.82964515686035 38.18853378295898 25.61076545715332 38.18926620483398 24.38175582885742 L 48.43232345581055 24.38175582885742 C 48.42866516113281 24.92536544799805 48.40671539306641 25.47452545166016 48.36711502075195 26.01402473449707 C 48.32787704467773 26.54840469360352 48.2702751159668 27.08768653869629 48.19588470458984 27.61686515808105 C 48.12221527099609 28.14111518859863 48.03011703491211 28.6693058013916 47.92215347290039 29.18679618835449 C 47.81514358520508 29.69978523254395 47.68970489501953 30.21575546264648 47.54934692382812 30.72038650512695 C 47.41005706787109 31.22109603881836 47.25245666503906 31.72367477416992 47.08090591430664 32.21414566040039 C 46.91055679321289 32.70121383666992 46.7219352722168 33.18923568725586 46.52030563354492 33.66466522216797 C 46.31990432739258 34.13715744018555 46.10144424438477 34.60944747924805 45.87100601196289 35.06840515136719 C 45.64177703857422 35.52496719360352 45.39462661743164 35.98036575317383 45.13643646240234 36.42197418212891 C 44.10672378540039 38.1832160949707 42.85459518432617 39.81267547607422 41.41484451293945 41.26507568359375 C 39.9754638671875 42.71710586547852 38.35745620727539 43.98321533203125 36.60573577880859 45.02822494506836 L 36.60573577880859 45.02823638916016 Z M 48.43275451660156 24.13959503173828 L 48.43275451660156 24.13958549499512 L 48.43275451660156 24.13959503173828 Z M 48.43275451660156 24.13958549499512 L 38.18732452392578 24.13958549499512 C 38.16715621948242 22.92647552490234 37.98919677734375 21.72482490539551 37.65835571289062 20.56796646118164 C 37.33720397949219 19.44502639770508 36.8723258972168 18.36445617675781 36.27662658691406 17.35628509521484 C 35.69036483764648 16.36406517028809 34.97985458374023 15.44585609436035 34.16484451293945 14.62714576721191 C 33.3499641418457 13.80856609344482 32.43510437011719 13.09397602081299 31.4456958770752 12.50321578979492 L 36.67473602294922 3.446245670318604 C 38.42330551147461 4.497235774993896 40.03728485107422 5.768675804138184 41.47185516357422 7.225255489349365 C 42.90719604492188 8.682615280151367 44.15412521362305 10.31640529632568 45.17804718017578 12.08121585845947 C 45.43474578857422 12.52365589141846 45.68040466308594 12.97999572753906 45.9082145690918 13.43756580352783 C 46.13720703125 13.89751529693604 46.3541145324707 14.37069606781006 46.55291366577148 14.84395599365234 C 46.75296401977539 15.32015609741211 46.93994522094727 15.80900573730469 47.10870361328125 16.29693603515625 C 47.27863693237305 16.78829574584961 47.43454360961914 17.29166603088379 47.57209396362305 17.79303550720215 C 47.71071624755859 18.29828643798828 47.83438491821289 18.81499481201172 47.93966674804688 19.32879638671875 C 48.04583358764648 19.84701538085938 48.1360969543457 20.37590599060059 48.20793533325195 20.90078544616699 C 48.28044509887695 21.4306755065918 48.33613586425781 21.9705753326416 48.37344360351562 22.50552558898926 C 48.41112518310547 23.04583549499512 48.43108367919922 23.59561538696289 48.43275451660156 24.13959503173828 Z M 10.56100559234619 24.09116554260254 L 10.56100559234619 24.09113502502441 L 4.535095285973512e-05 24.09113502502441 C 0.002825350966304541 23.54025650024414 0.02438535168766975 22.98363494873047 0.06409534811973572 22.43670654296875 C 0.1034253537654877 21.89516639709473 0.161595344543457 21.34869575500488 0.2370153516530991 20.81247520446777 C 0.3117253482341766 20.28127479553223 0.4053253531455994 19.74619483947754 0.5152053236961365 19.22206497192383 C 0.6241253614425659 18.70251655578613 0.7519353628158569 18.18000602722168 0.8950753211975098 17.66904640197754 C 1.037095308303833 17.16210556030273 1.197895407676697 16.65338516235352 1.373015403747559 16.15703582763672 C 1.546935319900513 15.66406536102295 1.739535331726074 15.17034530639648 1.945435404777527 14.68961524963379 C 2.150065422058105 14.21186542510986 2.373235464096069 13.73436546325684 2.608755350112915 13.27037525177002 C 2.843015432357788 12.80886554718018 3.095555305480957 12.34879589080811 3.359355449676514 11.90293598175049 C 4.4119553565979 10.12387561798096 5.691595554351807 8.481975555419922 7.162715435028076 7.022855758666992 C 8.634255409240723 5.563305854797363 10.28698539733887 4.29692554473877 12.07500553131104 3.258875608444214 L 17.38406562805176 12.45444583892822 C 15.38385581970215 13.62985515594482 13.69731521606445 15.30387592315674 12.50677490234375 17.29553604125977 C 11.90397548675537 18.303955078125 11.43251514434814 19.38579559326172 11.10548496246338 20.51100540161133 C 10.76862525939941 21.66998481750488 10.58544540405273 22.87451553344727 10.56100559234619 24.09114646911621 L 10.56100559234619 24.09116554260254 Z M 31.23667526245117 12.38092517852783 L 31.23668479919434 12.38090515136719 C 30.21384620666504 11.7943058013916 29.1193962097168 11.34141540527344 27.98372459411621 11.03481578826904 C 26.8128547668457 10.71871566772461 25.59827613830566 10.55844593048096 24.37372589111328 10.55844593048096 C 23.16595458984375 10.55844593048096 21.96729469299316 10.71448516845703 20.81103515625 11.02223587036133 C 19.68937492370605 11.32077598571777 18.60698509216309 11.76197528839111 17.59393501281738 12.33358573913574 L 12.28505516052246 3.138325691223145 C 12.72450542449951 2.889055728912354 13.1773157119751 2.650725603103638 13.63088512420654 2.429955720901489 C 14.08691501617432 2.207975625991821 14.5559549331665 1.997785568237305 15.02495574951172 1.805235624313354 C 15.49681568145752 1.611515641212463 15.98096561431885 1.430595636367798 16.46396446228027 1.267495632171631 C 16.95041465759277 1.103235602378845 17.44855499267578 0.9526956081390381 17.94456481933594 0.8200756311416626 C 18.44442558288574 0.6864055991172791 18.95544624328613 0.5673756003379822 19.46342468261719 0.4662756323814392 C 19.97573471069336 0.364325612783432 20.49851608276367 0.2779156267642975 21.01721572875977 0.2094556242227554 C 21.54073524475098 0.1403556168079376 22.07414627075195 0.08768562227487564 22.60262489318848 0.05292562395334244 C 23.13630485534668 0.01780562289059162 23.67921447753906 5.622558546747314e-06 24.21629524230957 5.622558546747314e-06 C 24.76960563659668 5.622558546747314e-06 25.32883453369141 0.01889562234282494 25.87845611572266 0.05616562440991402 C 26.42258453369141 0.09305562078952789 26.97170448303223 0.1489356160163879 27.51053619384766 0.2222356200218201 C 28.04429626464844 0.2948456108570099 28.58204460144043 0.3864656090736389 29.10886573791504 0.4945556223392487 C 29.63105583190918 0.6017056107521057 30.15622520446777 0.7278556227684021 30.66979598999023 0.8694956302642822 C 31.17934608459473 1.010035634040833 31.69070625305176 1.169485569000244 32.1896858215332 1.343405604362488 C 32.68521499633789 1.516125679016113 33.18154525756836 1.707645654678345 33.66487503051758 1.912645578384399 C 34.14522552490234 2.116375684738159 34.62528610229492 2.338745594024658 35.09171676635742 2.573555707931519 C 35.55565643310547 2.807125568389893 36.01822662353516 3.059115648269653 36.4665641784668 3.322515726089478 L 31.23668479919434 12.38090515136719 L 31.23667526245117 12.38092517852783 Z" stroke="none" fill="#fff"/>
  </g>
</svg>
