<svg xmlns="http://www.w3.org/2000/svg" width="24" height="24" viewBox="0 0 24 24">
  <g id="settings-gear-64" opacity="0.14">
    <path id="Path_108" data-name="Path 108" d="M19.95,7.8,21.6,4.65l-2.1-2.1L16.35,4.2a5.373,5.373,0,0,0-1.65-.6L13.5,0h-3L9.3,3.45a6.269,6.269,0,0,0-1.5.6L4.65,2.4,2.4,4.65,4.05,7.8a6.269,6.269,0,0,0-.6,1.5L0,10.5v3l3.45,1.2c.15.6.45,1.05.6,1.65L2.4,19.5l2.1,2.1,3.15-1.65a5.373,5.373,0,0,0,1.65.6L10.5,24h3l1.2-3.45c.6-.15,1.05-.45,1.65-.6L19.5,21.6l2.1-2.1-1.65-3.15a5.373,5.373,0,0,0,.6-1.65L24,13.5v-3L20.55,9.3A6.269,6.269,0,0,0,19.95,7.8ZM12,16.5A4.42,4.42,0,0,1,7.5,12,4.42,4.42,0,0,1,12,7.5,4.42,4.42,0,0,1,16.5,12,4.42,4.42,0,0,1,12,16.5Z" fill="#fff"/>
  </g>
</svg>
